<?xml version="1.0" encoding="UTF-8" standalone="no"?>
<!DOCTYPE svg PUBLIC "-//W3C//DTD SVG 1.1//EN" "http://www.w3.org/Graphics/SVG/1.1/DTD/svg11.dtd">
<svg width="100%" height="100%" viewBox="0 0 384 384" version="1.1" xmlns="http://www.w3.org/2000/svg" xmlns:xlink="http://www.w3.org/1999/xlink" xml:space="preserve" xmlns:serif="http://www.serif.com/" style="fill-rule:evenodd;clip-rule:evenodd;stroke-linejoin:round;stroke-miterlimit:2;">
    <g transform="matrix(0.64,0,0,0.64,0,0)">
        <g transform="matrix(1,0,0,1,-50.5438,23.4917)">
            <path d="M433.08,26.816C448.689,38.089 461.896,52.433 471.838,68.976C491.115,69.308 510.127,73.578 527.67,81.449C506.057,51.633 469.768,30.617 433.08,26.816ZM418.006,26.082C396.994,26.281 376.315,31.351 357.635,40.957C375.112,52.164 390.389,67.371 401.928,86.184C421.338,75.645 442.151,70.106 462.83,69.106C451.49,51.497 436.08,36.754 418.002,26.079L418.006,26.082ZM420.072,18.41C470.103,18.742 516.197,45.359 541.482,88.519C583.373,113.066 611.255,161.23 611.591,209.859C636.138,253.019 636.138,306.918 611.591,350.069C611.259,399.897 584.443,446.26 541.482,471.479C516.267,514.436 469.908,541.252 420.072,541.588C376.912,566.135 323.013,566.135 279.862,541.588C230.034,541.256 183.671,514.44 158.522,471.479C115.495,446.264 88.749,399.905 88.413,350.069C63.866,306.909 63.866,253.01 88.413,209.859C88.745,159.894 115.362,113.8 158.522,88.519C183.737,45.492 230.03,18.746 279.862,18.41C323.022,-6.137 376.921,-6.137 420.072,18.41ZM476.174,76.777C485.713,95.254 491.315,116.066 491.916,138.082C513.928,138.683 534.74,144.285 553.154,153.824C552.154,132.879 546.217,112.398 535.877,94.121C517.6,83.781 497.119,77.844 476.174,76.777ZM491.916,145.75C491.315,167.898 485.647,188.707 476.041,207.254C496.853,208.121 517.732,213.656 537.209,224.266C547.748,204.653 553.018,183.508 553.354,162.563C535.077,152.422 514.131,146.352 491.916,145.754L491.916,145.75ZM471.838,214.723C461.565,231.934 447.756,246.676 431.412,258.149C451.291,259.95 470.635,265.821 488.111,275.559C506.056,264.821 521.666,249.743 533.338,230.868C513.791,220.263 492.713,215.059 471.834,214.723L471.838,214.723ZM420.139,265.285C408.666,271.824 396.123,276.824 382.916,279.961C396.123,283.097 408.666,288.097 420.139,294.703C440.951,294.503 461.565,289.433 480.108,279.961C461.565,270.555 441.018,265.484 420.139,265.285ZM317.079,279.961C303.872,276.824 291.329,271.824 279.856,265.285C258.977,265.484 238.43,270.554 219.887,279.961C238.43,289.433 258.977,294.504 279.856,294.703C291.329,288.097 303.872,283.098 317.079,279.961ZM268.583,258.149C252.239,246.676 238.431,231.934 228.157,214.723C207.278,215.055 186.2,220.258 166.587,230.868C178.259,249.813 193.939,264.821 211.88,275.559C229.357,265.82 248.7,259.95 268.579,258.149L268.583,258.149ZM223.958,207.184C214.353,188.707 208.681,167.895 208.083,145.746C185.802,146.347 164.923,152.418 146.645,162.555C146.977,183.5 152.181,204.645 162.79,224.258C182.267,213.653 203.145,208.113 223.958,207.18L223.958,207.184ZM208.083,138.075C208.685,116.063 214.286,95.251 223.825,76.77C202.88,77.836 182.399,83.774 164.122,94.114C153.782,112.391 147.845,132.872 146.778,153.817C165.255,144.278 186.067,138.676 208.083,138.075ZM228.161,68.966C238.099,52.423 251.243,38.079 266.852,26.806C229.164,30.743 194.543,50.689 172.262,81.439C189.871,73.568 208.883,69.298 228.16,68.966L228.161,68.966ZM404.601,19.138C369.98,3.728 330.023,3.728 295.401,19.138C314.546,21.138 333.155,26.942 349.967,36.349C366.842,26.943 385.455,21.138 404.6,19.138L404.601,19.138ZM281.991,26.075C263.846,36.747 248.503,51.489 237.096,69.102C257.842,70.102 278.655,75.641 298.065,86.18C309.604,67.368 324.815,52.16 342.292,40.953C323.683,31.348 302.937,26.277 281.991,26.078L281.991,26.075ZM232.561,76.637C222.42,94.914 216.35,115.793 215.752,138.075C237.9,138.677 258.709,144.345 277.19,153.95C278.124,133.138 283.659,112.259 294.268,92.782C274.655,82.177 253.51,76.973 232.565,76.637L232.561,76.637ZM215.752,145.746C216.42,167.961 222.424,188.84 232.561,207.117C252.573,207.449 272.319,211.988 290.397,220.39C281.991,202.312 277.456,182.566 277.124,162.554C258.847,152.413 237.968,146.409 215.753,145.745L215.752,145.746ZM237.299,214.922C248.639,232.399 263.983,247.074 281.924,257.613C295.131,257.68 308.475,259.68 321.549,263.551C311.612,254.211 303.272,243.606 296.6,232.199C278.455,221.926 258.112,215.988 237.299,214.922L237.299,214.922ZM300.404,266.688C309.877,270.489 319.951,273.227 330.353,274.692C320.615,270.825 310.541,268.153 300.404,266.688ZM369.58,274.692C380.053,273.223 390.06,270.489 399.6,266.688C389.459,268.157 379.389,270.825 369.58,274.692ZM418.076,257.614C436.021,247.009 451.295,232.399 462.701,214.923C441.889,215.99 421.545,221.927 403.4,232.2C396.662,243.606 388.326,254.212 378.451,263.552C391.459,259.685 404.799,257.681 418.076,257.615L418.076,257.614ZM467.373,207.118C477.58,188.841 483.584,167.962 484.182,145.747C461.967,146.415 441.155,152.419 422.877,162.556C422.545,182.568 418.006,202.314 409.537,220.392C427.682,211.986 447.361,207.451 467.373,207.119L467.373,207.118ZM484.182,138.075C483.581,115.794 477.577,94.915 467.373,76.637C446.428,76.969 425.35,82.172 405.736,92.782C416.275,112.259 421.814,133.137 422.748,153.95C441.225,144.345 462.103,138.673 484.186,138.075L484.182,138.075ZM349.972,45.153C332.027,55.891 316.351,71.036 304.679,89.981C323.558,101.586 338.765,116.864 349.972,134.473C361.179,116.93 376.456,101.586 395.331,89.981C383.659,71.036 367.979,55.895 349.972,45.153ZM321.554,296.433C308.546,300.3 295.14,302.238 281.929,302.304C263.984,312.909 248.644,327.585 237.304,345.062C258.116,343.929 278.46,338.058 296.605,327.785C303.277,316.312 311.679,305.773 321.554,296.433L321.554,296.433ZM268.589,301.769C248.71,300.035 229.366,294.097 211.89,284.425C193.945,295.097 178.269,310.175 166.663,329.116C186.21,339.655 207.288,344.858 228.167,345.194C238.44,328.049 252.249,313.241 268.593,301.768L268.589,301.769ZM204.484,279.957C186.941,268.75 171.597,253.543 159.992,234.664C141.047,246.336 125.906,262.016 115.164,279.957C125.902,297.969 141.047,313.645 159.992,325.25C171.597,306.438 186.875,291.164 204.484,279.957ZM156.187,228.059C145.648,208.649 140.109,187.836 139.109,167.09C131.105,172.293 123.632,178.297 116.894,185.035C108.89,193.039 101.886,202.113 96.082,211.984C96.282,232.929 101.352,253.675 110.957,272.285C122.164,254.808 137.371,239.597 156.184,228.058L156.187,228.059ZM138.976,158.149C139.308,138.872 143.578,119.86 151.449,102.251C120.765,124.532 100.754,159.153 96.816,196.841C108.089,181.232 122.433,168.091 138.976,158.15L138.976,158.149ZM300.406,293.299C310.547,291.764 320.617,289.162 330.426,285.229C319.953,286.764 309.879,289.498 300.406,293.299ZM364.312,265.682C372.586,259.077 379.988,251.674 386.324,243.67C378.254,250.006 370.847,257.346 364.312,265.682ZM397.8,226.592C408.073,208.447 413.945,188.104 415.077,167.291C397.6,178.631 382.925,193.975 372.319,211.916C372.253,225.123 370.319,238.467 366.448,251.541C375.788,241.604 386.327,233.264 397.8,226.592L397.8,226.592ZM415.21,158.151C414.878,137.272 409.675,116.194 399.132,96.581C380.187,108.253 365.112,123.933 354.441,141.874C364.113,159.351 370.05,178.694 371.785,198.573C383.258,182.229 398.066,168.421 415.211,158.147L415.21,158.151ZM300.87,96.647C290.265,116.194 285.061,137.272 284.725,158.151C301.936,168.424 316.678,182.233 328.151,198.577C329.952,178.698 335.823,159.354 345.561,141.878C334.823,123.933 319.745,108.257 300.87,96.651L300.87,96.647ZM313.679,316.307C321.683,309.971 329.089,302.565 335.691,294.295C327.352,300.834 320.015,308.236 313.679,316.307ZM355.238,260.342C359.176,250.604 361.778,240.53 363.309,230.393C359.508,239.866 356.77,249.94 355.238,260.342ZM364.711,209.846C364.512,188.967 359.442,168.42 349.969,149.877C340.563,168.42 335.492,188.967 335.293,209.846C341.832,221.319 346.832,233.862 349.969,247.069C353.106,233.862 358.106,221.319 364.711,209.846ZM333.559,308.44C324.219,318.311 313.614,326.717 302.207,333.389C291.934,351.534 285.996,371.877 284.93,392.69C302.407,381.284 317.082,366.006 327.621,348.065C327.688,334.792 329.688,321.448 333.559,308.44L333.559,308.44ZM290.399,339.526C272.321,347.999 252.575,352.534 232.563,352.866C222.422,371.143 216.418,391.956 215.754,414.171C237.969,413.569 258.848,407.566 277.125,397.362C277.457,377.35 281.996,357.671 290.398,339.526L290.399,339.526ZM223.958,352.733C203.146,351.799 182.267,346.264 162.79,335.721C152.185,355.334 146.981,376.412 146.645,397.358C164.922,407.565 185.801,413.569 208.083,414.167C208.685,392.089 214.353,371.21 223.958,352.729L223.958,352.733ZM156.185,331.921C137.373,320.382 122.165,305.105 110.958,287.628C101.353,306.308 96.282,327.05 96.083,347.999C106.755,366.077 121.497,381.487 139.11,392.827C140.11,372.147 145.649,351.335 156.188,331.925L156.185,331.921ZM106.357,279.956C96.951,263.147 91.146,244.534 89.146,225.39C73.736,260.011 73.736,299.968 89.146,334.59C91.146,315.445 96.951,296.836 106.357,279.957L106.357,279.956ZM284.927,167.286C285.994,188.098 291.931,208.442 302.204,226.587C313.61,233.259 324.216,241.595 333.556,251.536C329.689,238.462 327.685,225.122 327.619,211.911C317.08,193.966 302.404,178.626 284.928,167.286L284.927,167.286ZM349.966,312.906C346.829,326.113 341.829,338.656 335.29,350.129C335.489,370.941 340.56,391.555 349.966,410.098C359.439,391.555 364.509,370.942 364.708,350.129C358.103,338.656 353.103,326.113 349.966,312.906ZM328.154,361.402C316.681,377.746 301.939,391.554 284.728,401.828C285.06,422.707 290.263,443.785 300.873,463.332C319.818,451.727 334.826,436.051 345.564,418.105C335.826,400.628 329.955,381.285 328.154,361.406L328.154,361.402ZM277.189,406.027C258.712,415.633 237.9,421.304 215.751,421.902C216.353,444.117 222.423,465.062 232.56,483.34C253.505,483.008 274.65,477.738 294.263,467.195C283.658,447.718 278.118,426.84 277.185,406.027L277.189,406.027ZM208.08,421.902C186.068,421.3 165.256,415.699 146.775,406.16C147.842,427.105 153.779,447.586 164.119,465.863C182.396,476.203 202.877,482.14 223.822,483.14C214.283,464.73 208.681,443.917 208.08,421.902ZM138.971,401.824C122.428,391.887 108.084,378.676 96.811,363.066C100.749,400.82 120.694,435.441 151.444,457.656C143.573,440.113 139.303,421.101 138.971,401.824ZM336.691,329.582C340.492,320.043 343.23,310.035 344.695,299.562C340.828,309.367 338.156,319.441 336.691,329.582ZM344.695,260.34C343.226,249.934 340.492,239.926 336.691,230.391C338.16,240.532 340.828,250.602 344.695,260.34ZM313.675,243.664C320.011,251.668 327.351,259.074 335.687,265.676C329.082,257.336 321.679,250 313.675,243.664ZM366.441,308.437C370.308,321.445 372.246,334.785 372.312,348.062C382.917,366.007 397.593,381.281 415.07,392.687C413.937,371.875 408.066,351.531 397.793,333.386C386.32,326.648 375.781,318.312 366.441,308.437L366.441,308.437ZM371.777,361.402C370.043,381.281 364.105,400.625 354.433,418.101C365.105,436.046 380.183,451.656 399.124,463.328C409.663,443.781 414.866,422.703 415.202,401.824C398.057,391.551 383.249,377.742 371.776,361.398L371.777,361.402ZM349.965,425.507C338.758,443.05 323.551,458.394 304.672,469.999C316.344,488.944 332.024,504.019 349.965,514.761C367.977,504.023 383.653,488.945 395.258,469.999C376.446,458.394 361.172,443.05 349.965,425.507ZM298.067,473.804C278.657,484.343 257.844,489.882 237.098,490.816C248.504,508.492 263.914,523.234 281.993,533.91C302.938,533.711 323.684,528.574 342.294,519.035C324.817,507.828 309.606,492.621 298.067,473.808L298.067,473.804ZM228.157,490.949C208.88,490.683 189.868,486.414 172.259,478.543C194.54,509.227 229.161,529.238 266.849,533.176C251.24,521.903 238.099,507.559 228.158,490.949L228.157,490.949ZM363.307,329.589C361.772,319.448 359.17,309.378 355.237,299.569C356.772,310.042 359.506,320.049 363.307,329.589ZM386.323,316.316C379.987,308.246 372.581,300.839 364.311,294.304C370.85,302.577 378.252,309.98 386.323,316.316ZM378.452,296.437C388.323,305.777 396.729,316.316 403.401,327.789C421.546,338.062 441.889,343.934 462.702,345.066C451.296,327.589 436.018,312.914 418.077,302.308C404.804,302.242 391.46,300.308 378.452,296.437L378.452,296.437ZM409.538,339.531C418.011,357.676 422.546,377.355 422.878,397.367C441.155,407.574 461.968,413.578 484.183,414.176C483.581,391.961 477.577,371.149 467.374,352.871C447.362,352.539 427.683,348 409.538,339.531ZM422.745,406.039C421.811,426.851 416.276,447.73 405.733,467.207C425.346,477.746 446.424,483.016 467.37,483.352C477.577,465.075 483.581,444.129 484.179,421.914C462.101,421.312 441.222,415.645 422.741,406.039L422.745,406.039ZM401.933,473.812C390.394,492.624 375.117,507.832 357.64,519.039C376.32,528.578 397.062,533.715 418.011,533.914C436.089,523.242 451.499,508.5 462.839,490.82C442.159,489.886 421.347,484.351 401.937,473.808L401.933,473.812ZM349.968,523.64C333.159,532.98 314.546,538.851 295.402,540.785C330.023,556.262 369.98,556.262 404.602,540.785C385.457,538.851 366.848,532.98 349.969,523.64L349.968,523.64ZM431.417,301.77C447.761,313.243 461.569,328.051 471.843,345.196C492.722,344.864 513.8,339.661 533.347,329.118C521.742,310.173 506.066,295.098 488.12,284.427C470.643,294.099 451.3,300.036 431.421,301.771L431.417,301.77ZM476.042,352.735C485.647,371.212 491.319,392.09 491.917,414.173C514.132,413.571 535.077,407.568 553.355,397.364C553.023,376.419 547.753,355.341 537.21,335.727C517.733,346.266 496.855,351.805 476.042,352.739L476.042,352.735ZM491.917,421.911C491.315,443.923 485.714,464.735 476.175,483.149C497.12,482.149 517.601,476.212 535.878,465.872C546.218,447.595 552.155,427.114 553.155,406.169C534.745,415.708 513.932,421.31 491.917,421.911ZM471.839,490.954C461.901,507.563 448.691,521.907 433.081,533.181C470.835,529.244 505.456,509.232 527.671,478.548C510.128,486.419 491.116,490.689 471.839,490.954ZM399.597,293.304C390.058,289.503 380.05,286.765 369.577,285.234C379.382,289.171 389.456,291.773 399.597,293.304ZM495.519,279.964C513.062,291.171 528.406,306.448 540.011,325.323C558.956,313.651 574.031,297.971 584.773,279.964C574.035,262.019 558.957,246.343 540.011,234.671C528.406,253.55 513.062,268.757 495.519,279.964ZM543.816,331.929C554.355,351.339 559.894,372.152 560.828,392.831C578.504,381.491 593.246,366.081 603.922,348.003C603.723,327.058 598.586,306.312 589.047,287.632C577.84,305.109 562.633,320.386 543.82,331.925L543.816,331.929ZM560.961,401.839C560.695,421.116 556.426,440.128 548.555,457.671C579.239,435.39 599.25,400.839 603.188,363.081C591.915,378.69 577.571,391.897 560.961,401.839ZM543.816,228.069C562.628,239.608 577.836,254.819 589.043,272.296C598.582,253.687 603.719,232.941 603.918,211.995C593.246,193.917 578.504,178.507 560.824,167.1C559.89,187.846 554.355,208.659 543.812,228.069L543.816,228.069ZM593.644,279.967C602.984,296.842 608.855,315.455 610.789,334.6C626.266,299.979 626.266,260.022 610.789,225.4C608.855,244.545 602.984,263.154 593.644,279.966L593.644,279.967ZM560.956,158.167C577.565,168.105 591.909,181.249 603.183,196.858C599.245,159.17 579.234,124.549 548.55,102.268C556.421,119.877 560.691,138.889 560.956,158.166L560.956,158.167Z" style="fill:rgb(133,202,224);fill-rule:nonzero;"/>
        </g>
    </g>
</svg>
