<?xml version="1.0" encoding="UTF-8" standalone="no"?>
<!DOCTYPE svg PUBLIC "-//W3C//DTD SVG 1.1//EN" "http://www.w3.org/Graphics/SVG/1.1/DTD/svg11.dtd">
<svg width="100%" height="100%" viewBox="0 0 1600 1600" version="1.1" xmlns="http://www.w3.org/2000/svg" xmlns:xlink="http://www.w3.org/1999/xlink" xml:space="preserve" xmlns:serif="http://www.serif.com/" style="fill-rule:evenodd;clip-rule:evenodd;stroke-linejoin:round;stroke-miterlimit:2;">    <g transform="matrix(5.92465,0,0,5.92465,-1273.7,-872.06)">        <g>            <path d="M460.43,307.44L447.438,307.44L447.438,378.557C447.438,382.682 445.794,386.635 442.872,389.545C439.954,392.459 435.993,394.084 431.868,394.068L381.47,394.068L381.47,357.892C381.47,346.568 375.427,336.107 365.622,330.443C355.813,324.783 343.731,324.783 333.927,330.443C324.118,336.108 318.075,346.568 318.075,357.892L318.075,394.068L267.677,394.068C263.63,393.967 259.786,392.287 256.962,389.389C254.137,386.494 252.555,382.604 252.555,378.557L252.555,307.44L239.563,307.44C235.423,307.483 231.434,305.869 228.481,302.967C225.532,300.061 223.86,296.096 223.837,291.955C223.813,287.811 225.446,283.83 228.364,280.893L338.794,170.463C341.697,167.533 345.646,165.889 349.771,165.889C353.892,165.889 357.845,167.533 360.748,170.463L471.398,280.893C474.301,283.815 475.929,287.764 475.929,291.881C475.925,295.994 474.293,299.943 471.386,302.858C468.48,305.776 464.539,307.42 460.425,307.44L460.43,307.44Z" style="fill:rgb(201,8,8);fill-rule:nonzero;"/>        </g>    </g></svg>
