<?xml version="1.0" encoding="UTF-8" standalone="no"?>
<!DOCTYPE svg PUBLIC "-//W3C//DTD SVG 1.1//EN" "http://www.w3.org/Graphics/SVG/1.1/DTD/svg11.dtd">
<svg width="100%" height="100%" viewBox="0 0 1600 1600" version="1.1" xmlns="http://www.w3.org/2000/svg" xmlns:xlink="http://www.w3.org/1999/xlink" xml:space="preserve" xmlns:serif="http://www.serif.com/" style="fill-rule:evenodd;clip-rule:evenodd;stroke-linejoin:round;stroke-miterlimit:2;">    <g transform="matrix(-2.82712,0,0,2.73536,4986.3,-3159.31)">        <g>            <g transform="matrix(1,0,0,1,1137.13,1160.96)">                <path d="M404.32,351.12L417.761,351.12L417.761,391.999L446.878,391.999L446.878,351.12L461.437,351.12L432.878,314.159L404.32,351.12Z" style="fill:rgb(201,8,8);fill-rule:nonzero;"/>            </g>            <g transform="matrix(1,0,0,1,1137.13,1160.96)">                <path d="M349.44,33.602C216.16,33.602 107.52,142.242 108.08,276.082C108.08,320.883 120.4,364.004 143.92,402.642L121.522,506.242C120.401,512.402 122.081,518.004 127.124,522.48C129.924,525.281 133.842,526.402 137.765,526.402C139.444,526.402 141.687,526.402 143.925,525.281L237.445,489.441C272.164,507.921 310.804,517.441 350.005,517.441C483.285,517.441 591.925,409.361 591.925,276.081C591.925,142.801 483.285,33.601 349.445,33.601L349.44,33.602ZM328.717,147.842L371.276,147.842L371.276,178.643L363.436,171.362L351.116,183.682L338.796,171.362L329.277,180.323L329.281,147.843L328.717,147.842ZM483.277,393.122C483.277,404.321 474.316,412.724 463.675,412.724L236.875,412.72C225.676,412.72 217.273,403.759 217.273,393.118L217.277,166.878C217.277,155.679 226.238,147.276 236.879,147.276L316.395,147.28L318.633,147.28L318.637,201.6L337.676,184.241L349.996,195.999L362.316,183.679L380.796,202.718L380.796,147.839L463.116,147.839C474.315,147.839 482.718,157.358 482.718,168.558L482.714,393.118L483.277,393.122Z" style="fill:rgb(201,8,8);fill-rule:nonzero;"/>            </g>        </g>    </g></svg>
