<?xml version="1.0" encoding="UTF-8" standalone="no"?>
<!DOCTYPE svg PUBLIC "-//W3C//DTD SVG 1.1//EN" "http://www.w3.org/Graphics/SVG/1.1/DTD/svg11.dtd">
<svg width="100%" height="100%" viewBox="0 0 384 384" version="1.1" xmlns="http://www.w3.org/2000/svg" xmlns:xlink="http://www.w3.org/1999/xlink" xml:space="preserve" xmlns:serif="http://www.serif.com/" style="fill-rule:evenodd;clip-rule:evenodd;stroke-linejoin:round;stroke-miterlimit:2;">    <g transform="matrix(0.64,0,0,0.64,0,0)">        <g transform="matrix(1.47846,0,0,1.47846,-218.045,-116.655)">            <path d="M537.6,343.84L497.28,303.52C487.202,278.321 468.159,257.598 444.081,245.282L465.362,224.001C492.241,197.122 492.241,152.88 465.362,126.001C452.483,113.122 435.124,105.841 416.643,105.841C398.162,105.841 380.803,113.122 367.924,126.001L340.483,153.442L313.042,126.001C300.163,113.122 282.804,105.841 264.323,105.841C245.842,105.841 228.483,113.122 215.604,126.001C188.725,152.88 188.725,197.122 215.604,224.001L232.963,241.36C192.643,257.598 164.084,297.36 164.084,343.28C164.084,404.319 213.365,453.6 274.404,453.6L394.794,453.6C441.274,453.6 481.032,424.479 497.274,383.6L537.6,343.84ZM367.92,271.039L367.92,416.639L330.4,416.639L330.4,271.039L367.92,271.039ZM393.678,152.879C399.838,146.719 407.678,143.36 416.076,143.36C424.474,143.36 432.877,146.719 438.474,152.879C450.794,165.199 450.794,185.918 438.474,198.238L402.076,234.636C399.275,234.636 397.037,234.077 394.236,234.077L312.478,234.077L393.678,152.879ZM240.238,152.879C246.398,146.719 254.238,143.36 262.636,143.36C271.034,143.36 279.437,146.719 285.034,152.879L312.475,180.32L267.116,225.679L239.675,198.238C227.359,185.359 227.359,165.199 240.238,152.879ZM199.922,343.839C199.922,303.519 232.402,271.038 272.723,271.038L282.801,271.038L282.801,416.638L272.723,416.638C232.399,416.638 199.922,384.158 199.922,343.837L199.922,343.839ZM416.082,413.282L416.082,274.4C445.762,283.361 467.602,311.361 467.602,343.841C467.606,376.321 445.766,404.321 416.082,413.282Z" style="fill:rgb(201,8,8);fill-rule:nonzero;"/>        </g>        <g transform="matrix(1.47846,0,0,1.47846,-239.568,-91.7976)">            <circle cx="255.342" cy="318.602" r="14.865" style="fill:rgb(201,8,8);"/>        </g>    </g></svg>
