<?xml version="1.0" encoding="UTF-8" standalone="no"?>
<!DOCTYPE svg PUBLIC "-//W3C//DTD SVG 1.1//EN" "http://www.w3.org/Graphics/SVG/1.1/DTD/svg11.dtd">
<svg width="100%" height="100%" viewBox="0 0 384 384" version="1.1" xmlns="http://www.w3.org/2000/svg" xmlns:xlink="http://www.w3.org/1999/xlink" xml:space="preserve" xmlns:serif="http://www.serif.com/" style="fill-rule:evenodd;clip-rule:evenodd;stroke-linejoin:round;stroke-miterlimit:2;">
    <g transform="matrix(0.64,0,0,0.64,0,0)">
        <g transform="matrix(1,0,0,1,255.719,7.83844)">
            <g transform="matrix(1,0,0,1,-301.148,12.8148)">
                <path d="M536.78,382.15L628.018,46.94C628.678,43.635 628.018,41.651 626.034,39.667L591.655,4.624C589.67,2.639 587.026,1.979 584.381,2.639L247.851,93.217C245.207,93.877 243.882,95.202 243.222,97.846L230.66,144.787C229.336,147.432 229.336,150.076 231.984,152.061C313.968,234.045 395.285,316.031 477.274,398.01C479.259,399.335 481.903,399.995 483.888,399.335L532.154,386.773C534.138,386.113 536.123,384.128 536.783,382.144L536.78,382.15ZM492.483,333.224L501.741,299.505C456.784,254.548 411.823,209.587 366.201,164.625L333.142,173.219C386.033,226.774 439.592,279.669 492.482,333.219L492.483,333.224ZM315.293,174.544C311.988,171.239 313.309,164.626 318.598,163.966L507.028,113.056L515.621,79.337L249.171,150.743L483.881,386.113L517.601,376.855L315.291,174.545L315.293,174.544ZM614.133,46.274L526.86,367.594L503.719,343.793L589.668,21.813L614.129,46.274L614.133,46.274ZM577.11,18.504L505.704,284.954L481.243,260.493L531.489,72.063C533.473,66.774 528.184,62.145 523.555,64.129L245.865,138.18L255.123,104.461L577.103,18.512L577.11,18.504ZM470,249.914L381.406,160.656L503.056,128.258L469.997,249.908L470,249.914Z" style="fill:rgb(75,136,149);"/>
            </g>
            <g transform="matrix(1,0,0,1,-301.148,12.8148)">
                <path d="M163.22,177.85L71.982,513.06C70.658,516.365 71.322,518.349 73.966,520.333L108.345,554.712C110.33,557.357 112.314,558.017 115.619,556.697L452.149,466.779C454.133,466.119 456.118,464.134 456.778,462.15L469.34,414.548C470,411.903 470,409.919 468.015,407.275C386.031,325.291 304.045,243.975 222.065,161.985C220.741,160 218.097,159.34 216.116,160L167.85,173.223C165.866,173.223 163.221,175.868 163.221,177.852L163.22,177.85ZM206.857,226.776L198.263,259.835C243.22,305.456 288.181,350.413 333.143,395.375L366.862,386.117C313.307,333.226 260.412,279.667 206.862,226.777L206.857,226.776ZM384.047,384.796C388.016,388.765 386.031,394.714 381.403,396.034L192.973,446.28L183.715,479.999L450.165,408.593L215.455,173.883L182.396,183.141C249.834,250.579 316.606,317.351 384.046,384.791L384.047,384.796ZM85.207,513.726L172.48,192.406L196.281,215.547L109.668,538.187L85.207,513.726ZM122.895,541.496L194.301,275.046L218.762,299.507L168.516,487.937C166.532,492.566 171.821,497.195 176.45,495.871L454.14,421.82L444.882,454.879L122.895,541.496ZM229.345,310.086L318.603,399.344L196.953,431.742L229.351,310.092L229.345,310.086Z" style="fill:rgb(75,136,149);"/>
            </g>
        </g>
    </g>
</svg>
