<?xml version="1.0" encoding="UTF-8" standalone="no"?>
<!DOCTYPE svg PUBLIC "-//W3C//DTD SVG 1.1//EN" "http://www.w3.org/Graphics/SVG/1.1/DTD/svg11.dtd">
<svg width="100%" height="100%" viewBox="0 0 384 384" version="1.1" xmlns="http://www.w3.org/2000/svg" xmlns:xlink="http://www.w3.org/1999/xlink" xml:space="preserve" xmlns:serif="http://www.serif.com/" style="fill-rule:evenodd;clip-rule:evenodd;stroke-linejoin:round;stroke-miterlimit:2;">- <g transform="matrix(0.64,0,0,0.64,-27.6801,9.48147)">        <g>            <path d="M202.23,40.332L555.29,242.642C558.595,244.626 559.919,246.611 559.919,250.576L559.919,307.435C559.919,311.403 558.595,313.384 555.29,315.368L202.23,519.008C199.585,520.332 196.941,520.332 194.296,519.008L144.71,490.578C142.066,488.594 140.081,486.609 140.081,483.305L140.081,76.695C140.081,74.05 141.406,71.406 144.05,70.081L194.296,40.327C196.281,39.003 200.245,39.003 202.23,40.327L202.23,40.332ZM206.199,117.687L241.242,137.523L241.242,361.653L206.199,382.149L206.199,117.687ZM190.332,395.377C190.332,401.326 196.945,405.295 202.234,401.99L399.924,288.27L434.967,308.106L155.297,469.426L155.297,81.326L190.34,60.83L190.34,395.38L190.332,395.377ZM544.052,254.547L206.202,60.827L206.202,99.835L544.052,294.875L544.052,254.547ZM536.778,308.102L257.108,146.782L257.108,187.114L454.798,301.494C460.087,304.138 459.427,312.732 454.798,314.717L163.228,483.307L198.271,503.143L536.781,308.103L536.778,308.102ZM257.108,205.622L257.108,352.402L384.708,279.015L257.108,205.628L257.108,205.622Z" style="fill:rgb(250,161,42);"/>            <path d="M507.02,308.1L271.65,172.56L271.65,179.173L462.06,288.923C477.267,296.857 476.607,319.997 461.4,327.931L192.97,483.301L198.259,486.606L507.019,308.096L507.02,308.1Z" style="fill:rgb(250,161,42);"/>            <path d="M529.5,263.14L220.74,85.95L220.74,91.239L529.5,269.089L529.5,263.14Z" style="fill:rgb(250,161,42);"/>            <path d="M175.79,86.613L170.501,89.918L170.501,444.298L405.211,308.098L399.922,304.793L209.512,415.203C194.965,423.797 175.793,412.559 175.793,395.367L175.793,86.607L175.79,86.613Z" style="fill:rgb(250,161,42);"/>            <path d="M220.74,143.47L220.74,356.36L226.689,353.055L226.689,146.115L220.74,143.47Z" style="fill:rgb(250,161,42);"/>            <path d="M271.65,230.735L271.65,327.267L354.955,279.001L271.65,230.735ZM288.177,259.83L321.896,279.002L288.177,298.174L288.177,259.826L288.177,259.83Z" style="fill:rgb(250,161,42);"/>            <path d="M218.1,13.883L571.16,215.533C583.722,222.806 590.996,235.369 590.996,250.576L590.996,307.435C590.996,322.642 583.723,335.205 571.16,342.478L218.1,546.118C205.538,553.391 190.991,553.391 179.092,546.118L128.846,517.688C116.284,510.415 108.35,497.852 108.35,483.309L108.35,76.699C108.35,62.816 116.284,49.59 128.186,42.98L178.432,13.89C190.334,6.617 206.202,6.617 218.1,13.89L218.1,13.883ZM124.877,483.303C124.877,491.897 130.166,499.17 137.439,503.139L187.025,532.229C194.298,536.198 202.892,536.198 209.505,532.229L563.225,327.929C570.498,323.3 574.463,316.691 574.463,307.433L574.463,250.574C574.463,241.316 570.494,234.047 562.561,230.078L210.161,27.768C202.888,23.799 193.634,23.799 187.02,27.768L136.774,56.858C129.501,60.827 124.872,68.76 124.872,76.694L124.872,483.304L124.877,483.303Z" style="fill:rgb(250,161,42);"/>        </g>    </g></svg>