<?xml version="1.0" encoding="UTF-8" standalone="no"?>
<!DOCTYPE svg PUBLIC "-//W3C//DTD SVG 1.1//EN" "http://www.w3.org/Graphics/SVG/1.1/DTD/svg11.dtd">
<svg width="100%" height="100%" viewBox="0 0 384 384" version="1.1" xmlns="http://www.w3.org/2000/svg" xmlns:xlink="http://www.w3.org/1999/xlink" xml:space="preserve" xmlns:serif="http://www.serif.com/" style="fill-rule:evenodd;clip-rule:evenodd;stroke-linejoin:round;stroke-miterlimit:2;">
    <g transform="matrix(0.64,0,0,0.64,0,0)">
        <g transform="matrix(1,0,0,1,-49.5663,19.5334)">
            <path d="M158.21,178.46C135.648,184.612 115.132,196.921 100.772,215.382C104.874,239.999 115.131,260.511 131.542,276.921C158.21,252.304 197.183,242.05 232.052,250.253C197.181,237.944 168.462,211.28 158.204,178.46L158.21,178.46ZM131.542,287.18C115.132,303.59 104.874,326.153 102.823,348.719C117.182,367.18 137.694,379.489 160.261,385.641C170.519,350.77 197.183,324.102 232.054,311.793C197.183,320 160.261,311.793 131.544,287.176L131.542,287.18ZM92.569,213.332C86.417,162.051 113.081,114.871 160.26,94.362C178.721,47.182 227.951,18.464 279.23,22.569C318.203,-8.201 375.64,-8.201 416.67,22.569C465.9,16.417 515.131,43.081 535.64,90.26C582.82,108.721 611.538,157.951 607.433,209.23C636.152,248.203 638.203,305.64 607.433,346.67C613.585,395.9 586.921,445.131 539.742,465.64C519.23,512.82 472.051,541.538 420.772,537.433C381.799,566.152 324.362,568.203 283.332,537.433C232.051,543.585 184.871,516.921 164.362,469.742C117.182,449.23 88.464,402.051 92.569,350.772C61.799,311.799 61.799,254.362 92.569,213.332ZM244.359,90.252C279.23,100.51 305.898,127.174 318.207,162.045C310,127.174 318.207,90.252 342.824,61.535C326.414,45.125 303.851,34.867 281.285,32.816C262.824,47.175 248.465,67.687 244.363,90.254L244.359,90.252ZM320.257,174.354C324.359,188.713 324.359,205.124 320.257,219.483C326.409,221.534 330.515,221.534 334.616,223.585C336.667,219.483 340.768,217.432 342.823,213.327C332.565,203.069 324.362,188.71 320.261,174.354L320.257,174.354ZM314.105,244.096C310.003,252.303 305.898,260.506 301.796,266.658L301.796,293.326C305.897,299.478 312.054,307.685 314.105,315.888C322.312,319.99 330.515,324.095 336.667,328.197L363.335,328.197C369.487,324.095 377.694,317.939 385.897,315.888C389.998,307.681 394.104,299.478 398.206,293.326L398.206,266.658C394.104,258.451 387.948,252.299 385.897,244.096C377.69,239.994 369.487,235.889 363.335,231.787L336.667,231.787C328.46,235.889 322.308,242.045 314.105,244.096ZM283.335,285.123C273.077,297.432 258.718,303.584 244.362,309.74C258.721,305.638 275.132,305.638 289.491,307.689C291.541,303.588 291.541,299.482 293.592,295.38C289.491,293.329 287.44,289.228 283.334,285.122L283.335,285.123ZM283.335,274.865C287.436,272.814 289.487,268.713 293.593,264.607C291.542,260.505 291.542,256.4 289.491,252.298C275.132,256.4 258.721,256.4 242.311,252.298C258.721,256.4 273.081,264.607 283.338,274.86L283.335,274.865ZM307.952,237.943C310.002,233.841 310.002,229.736 312.053,225.634C297.694,221.532 283.334,213.325 271.026,203.072C281.284,213.33 289.487,227.689 295.643,242.045C299.745,242.045 303.85,239.994 307.952,237.943L307.952,237.943ZM234.104,94.353C211.542,88.201 186.924,90.251 166.413,100.505C158.206,121.017 156.155,145.634 162.311,168.196C199.233,159.989 236.159,170.247 262.821,194.864C238.204,168.196 227.95,131.274 234.102,94.354L234.104,94.353ZM156.155,104.611C119.233,125.123 98.717,162.049 98.717,205.121C115.127,188.711 133.588,176.402 154.1,170.25C147.947,149.738 147.947,127.172 156.15,104.609L156.155,104.611ZM461.795,92.302C470.002,129.224 459.744,166.15 435.127,192.812C461.795,168.195 498.717,157.941 535.637,164.093C539.738,141.531 539.738,116.913 529.484,96.402C506.922,88.195 484.355,86.144 461.793,92.3L461.795,92.302ZM426.924,201.022C414.615,211.28 402.307,219.483 387.951,225.639C387.951,229.741 390.001,233.846 392.052,237.948C396.154,239.999 400.259,239.999 404.361,242.05C408.463,227.691 416.67,213.331 426.923,201.023L426.924,201.022ZM365.385,223.584C369.486,221.533 373.592,221.533 377.694,219.482C373.592,205.123 373.592,188.712 377.694,172.302C373.592,188.712 365.385,203.072 355.132,213.329C357.182,217.431 361.284,219.482 365.39,223.587L365.385,223.584ZM451.537,88.204C445.384,65.642 433.076,45.126 414.615,30.766C389.998,34.868 369.486,45.125 353.076,61.536C377.693,88.204 387.947,127.177 379.744,162.046C390.002,127.175 416.666,98.456 451.537,88.198L451.537,88.204ZM404.357,24.614C369.486,2.052 324.357,2.052 289.487,24.614C312.049,28.716 332.565,41.024 346.925,55.384C363.335,41.025 381.796,28.716 404.363,24.614L404.357,24.614ZM539.737,100.512C547.944,121.024 547.944,143.59 543.838,166.153C564.35,172.305 582.811,182.563 599.221,198.973C599.221,157.946 576.659,118.973 539.733,100.512L539.737,100.512ZM539.737,174.36C529.479,209.231 500.764,235.899 467.944,248.208C502.815,240.001 539.737,248.208 568.454,272.825C584.864,256.415 595.122,233.852 597.173,211.286C582.814,192.825 562.302,178.466 539.735,174.364L539.737,174.36ZM455.635,250.258C441.276,254.36 424.865,254.36 408.455,250.258C408.455,256.41 408.455,260.516 406.404,264.617C410.506,266.668 412.556,270.769 416.662,272.824C426.92,262.566 441.279,254.363 455.635,250.262L455.635,250.258ZM568.455,283.078C539.736,307.695 502.814,317.949 467.945,309.746C502.816,322.055 529.484,346.668 541.793,381.539C564.355,375.387 584.871,363.078 599.231,344.617C595.129,320 584.872,299.488 568.461,283.078L568.455,283.078ZM455.635,307.695C441.276,303.593 426.916,295.386 416.662,285.133C412.56,287.184 410.509,291.285 406.404,295.391C408.455,299.493 408.455,303.598 410.505,307.7C424.864,303.598 441.275,303.598 455.634,307.7L455.635,307.695ZM601.275,354.875C584.865,371.285 566.404,383.594 545.892,389.746C549.993,410.258 549.993,432.824 543.841,455.387C580.763,434.875 601.279,395.899 601.279,354.877L601.275,354.875ZM537.685,391.797C500.763,400.004 463.837,389.746 437.175,365.129C461.792,391.797 472.046,428.719 465.894,465.639C488.456,469.741 513.074,469.741 533.585,459.487C541.792,436.925 543.843,414.358 537.686,391.796L537.685,391.797ZM428.965,356.926C418.707,344.617 410.504,332.309 404.348,317.953C400.246,317.953 396.141,320.004 392.039,322.055C389.988,326.156 389.988,330.262 387.937,334.364C402.296,338.465 416.656,346.673 428.964,356.926L428.965,356.926ZM455.633,469.746C420.762,459.488 394.094,430.773 381.785,397.953C389.992,432.824 381.785,469.746 357.168,498.463C373.578,514.873 396.141,525.131 418.707,527.182C437.168,512.823 449.477,492.311 455.629,469.744L455.633,469.746ZM379.735,385.644C375.633,371.285 375.633,354.874 377.684,338.464C373.582,338.464 369.477,338.464 365.375,336.413C363.324,340.515 359.223,342.566 355.117,344.62C367.426,356.929 373.578,371.288 379.734,385.647L379.735,385.644ZM410.505,535.384C387.943,529.232 367.427,518.974 353.067,504.614C336.657,518.973 318.196,531.282 295.629,535.384C330.5,557.946 375.629,555.896 410.499,535.384L410.505,535.384ZM346.915,498.462C322.298,469.743 312.044,432.821 320.247,397.952C307.938,432.823 281.274,459.491 248.454,471.8C254.606,494.362 266.915,514.878 285.376,529.238C309.993,525.136 330.505,514.879 346.915,498.468L346.915,498.462ZM322.298,385.642C326.399,371.283 334.607,356.923 344.86,346.669C342.809,342.567 338.707,340.517 334.602,336.411C330.5,338.462 326.395,338.462 322.293,340.513C326.394,354.872 326.394,371.283 322.293,385.642L322.298,385.642ZM238.196,467.693C229.989,430.771 240.246,393.845 264.864,367.183C238.196,391.8 201.274,402.054 164.354,395.902C158.201,418.464 160.252,443.082 170.506,463.593C191.018,471.8 215.635,473.851 238.197,467.695L238.196,467.693ZM273.067,358.973C283.325,348.715 297.684,340.512 312.04,334.356C312.04,330.254 309.989,326.149 307.938,322.047C303.836,319.996 299.731,319.996 295.629,317.945C291.527,332.304 283.32,346.664 273.067,358.972L273.067,358.973ZM158.197,459.483C152.044,438.971 152.044,414.354 156.146,393.842C135.634,387.69 117.173,377.432 100.763,361.022C100.763,402.049 123.325,441.022 158.201,459.483L158.197,459.483Z" style="fill:rgb(255,235,81);fill-rule:nonzero;"/>
        </g>
    </g>
</svg>
