<?xml version="1.0" encoding="UTF-8" standalone="no"?>
<!DOCTYPE svg PUBLIC "-//W3C//DTD SVG 1.1//EN" "http://www.w3.org/Graphics/SVG/1.1/DTD/svg11.dtd">
<svg width="100%" height="100%" viewBox="0 0 1600 1600" version="1.1" xmlns="http://www.w3.org/2000/svg" xmlns:xlink="http://www.w3.org/1999/xlink" xml:space="preserve" xmlns:serif="http://www.serif.com/" style="fill-rule:evenodd;clip-rule:evenodd;stroke-linejoin:round;stroke-miterlimit:2;">
    <g transform="matrix(2.66667,0,0,2.66667,0,0)">
        <g transform="matrix(0.782796,0,0,0.782796,-994.151,-625.787)">
            <path d="M1557.25,1330.46C1553.03,1330.46 1548.81,1329.06 1545.05,1326.24C1537.55,1320.62 1534.74,1311.7 1537.55,1302.79L1569.91,1203.37C1571.32,1199.14 1569.91,1193.99 1566.16,1191.64L1481.74,1130.2C1474.23,1124.58 1471.42,1115.66 1474.23,1106.75C1477.05,1097.84 1485.02,1092.21 1493.93,1092.21L1598.52,1092.21C1603.21,1092.21 1607.43,1089.4 1608.84,1084.71L1641.2,985.282C1644.01,976.37 1651.98,970.744 1660.89,970.744C1669.81,970.744 1677.78,976.371 1680.59,985.282L1712.49,1085.18C1713.89,1089.4 1718.11,1092.68 1722.81,1092.68L1827.39,1092.68C1836.77,1092.68 1844.28,1098.31 1847.09,1107.22C1849.9,1116.13 1847.09,1125.04 1839.59,1130.67L1755.16,1192.11C1751.41,1194.92 1750.01,1199.61 1751.41,1203.83L1783.77,1303.26C1786.59,1312.17 1783.77,1321.09 1776.27,1326.71C1768.77,1332.34 1759.39,1332.34 1751.88,1326.71L1667.46,1265.27C1663.71,1262.46 1658.55,1262.46 1654.8,1265.27L1570.38,1326.71C1565.69,1329.06 1561.47,1330.46 1557.25,1330.46L1557.25,1330.46ZM1658.37,853.04C1487.12,853.04 1347.54,995.69 1348.26,1171.43C1348.26,1230.26 1364.09,1286.88 1394.31,1337.61L1365.53,1473.64C1364.09,1481.73 1366.24,1489.09 1372.72,1494.96C1376.32,1498.64 1381.36,1500.11 1386.4,1500.11C1388.56,1500.11 1391.43,1500.11 1394.31,1498.64L1514.47,1451.58C1559.08,1475.85 1608.73,1488.35 1659.1,1488.35C1830.34,1488.35 1969.93,1346.43 1969.93,1171.43C1969.93,996.423 1830.34,853.038 1658.38,853.038L1658.37,853.04Z" style="fill:rgb(255,165,43);"/>
        </g>
    </g>
</svg>
