<?xml version="1.0" encoding="UTF-8" standalone="no"?>
<!DOCTYPE svg PUBLIC "-//W3C//DTD SVG 1.1//EN" "http://www.w3.org/Graphics/SVG/1.1/DTD/svg11.dtd">
<svg width="100%" height="100%" viewBox="0 0 600 600" version="1.1" xmlns="http://www.w3.org/2000/svg" xmlns:xlink="http://www.w3.org/1999/xlink" xml:space="preserve" xmlns:serif="http://www.serif.com/" style="fill-rule:evenodd;clip-rule:evenodd;stroke-linecap:round;stroke-linejoin:round;stroke-miterlimit:1.5;">    <g transform="matrix(0.358529,0,0,0.358529,300,300.001)">        <g id="logo2.svg" transform="matrix(1,0,0,1,-1181.5,-1181.5)">            <g transform="matrix(1,0,0,1,-13.7453,18.199)">                <path d="M562.267,827.858L562.267,1505.33L1131.45,1832.95L1130.52,1163.54L562.267,827.858Z" style="fill:none;stroke:rgb(201,8,8);stroke-width:50px;"/>            </g>            <g transform="matrix(1,0,0,1,-46.3081,-10.801)">                <path d="M1164.01,457.804L1164.01,1040.32L626.194,730.715L1164.01,457.804Z" style="fill:rgb(201,8,8);stroke:rgb(201,8,8);stroke-width:50px;"/>            </g>            <g transform="matrix(-1,0,0,1,2408.51,-10.801)">                <path d="M1164.01,457.804L1164.01,1040.32L626.194,730.715L1164.01,457.804Z" style="fill:none;stroke:rgb(201,8,8);stroke-width:50px;"/>            </g>            <g transform="matrix(-1,0,0,1,2375.95,18.199)">                <path d="M562.267,827.858L562.267,1505.33L1131.45,1832.95L1130.52,1163.54L562.267,827.858Z" style="fill:rgb(201,8,8);stroke:rgb(201,8,8);stroke-width:50px;"/>            </g>        </g>        <g id="logo2.svg1" serif:id="logo2.svg">        </g>    </g></svg>
